<?xml version="1.0" encoding="utf-8"?>
<!-- Generator: Adobe Illustrator 25.2.3, SVG Export Plug-In . SVG Version: 6.00 Build 0)  -->
<svg version="1.1" id="Layer_1" xmlns="http://www.w3.org/2000/svg" xmlns:xlink="http://www.w3.org/1999/xlink" x="0px" y="0px"
	 viewBox="0 0 45 60" style="enable-background:new 0 0 45 60;" xml:space="preserve">
<style type="text/css">
	.st0{fill-rule:evenodd;clip-rule:evenodd;fill:url(#Combined-Shape_1_);}
</style>
<desc>Created with Sketch.</desc>
<g id="Page-1">
	<g id="VSAT-20-Result-Page-Web" transform="translate(-787.000000, -1404.000000)">
		
			<linearGradient id="Combined-Shape_1_" gradientUnits="userSpaceOnUse" x1="-128.9548" y1="1966.4124" x2="-128.4527" y2="1965.4862" gradientTransform="matrix(45 0 0 -60 6600 119395)">
			<stop  offset="0" style="stop-color:#008AFF"/>
			<stop  offset="1" style="stop-color:#171347"/>
		</linearGradient>
		<path id="Combined-Shape" class="st0" d="M803.6,1404c0.9,0,1.8,0.2,2.7,0.5s1.7,0.7,2.5,1.2c0.7,0.3,1.3,0.6,2,0.9
			c0.6,0.3,1.2,0.4,1.8,0.4c0.3,0,0.5,0,0.6-0.1c0,0,0.1-0.1,0.2-0.2l0.1-0.1l0.1-0.2c0.2-0.4,0.6-0.9,1.1-1.5
			c0.5-0.6,1.3-0.9,2.5-0.9c1,0,1.8,0.2,2.5,0.6c0.7,0.4,1.3,0.8,1.8,1.3c0.5,0.5,0.8,0.9,1.1,1.3c0.2,0.4,0.3,0.6,0.4,0.6l0,0
			l0.1,0.1c0.1,0.3,0.1,0.6,0.1,0.9c-0.1,0.4-0.3,0.6-0.6,0.8c-1.3,1-2.4,2.1-3.1,3.3s-1.3,2.3-1.6,3.3c0.3-0.2,0.6-0.2,1-0.2
			s0.7,0.2,0.9,0.4c0.3,0.3,0.4,0.6,0.4,1.1c0,0.4-0.1,0.8-0.4,1.1c-0.3,0.3-0.6,0.7-1,1c-0.4,0.3-0.8,0.6-1.3,0.9
			c0.3,0.6,0.8,1.4,1.6,2.3s1.5,1.7,2.3,2.6c0.2,0.2,0.4,0.4,0.6,0.6l0.3,0.3l0.9,1c0.6,0.7,1.2,1.4,1.8,2.2s1.2,1.5,1.8,2.4
			c0.6,0.8,1.2,1.7,1.7,2.6c0.6,1.1,1.2,2.1,1.7,3.2c0.5,1.1,0.9,2.2,1.2,3.3c0.3,1.1,0.5,2.2,0.7,3.3c0.2,1.1,0.2,2.2,0.2,3.3
			c0,1.5-0.1,3-0.4,4.3s-0.7,2.5-1.3,3.6c-0.6,1.1-1.3,2.1-2.1,3c-0.8,0.9-1.8,1.7-2.9,2.4c-0.9,0.5-1.9,1-3,1.4s-2.3,0.7-3.6,1
			s-2.7,0.5-4.2,0.6c-1.5,0.1-3.2,0.2-5,0.2s-3.4-0.1-5-0.2c-1.5-0.1-2.9-0.3-4.2-0.6s-2.5-0.6-3.6-1s-2.1-0.9-3-1.4
			c-1.1-0.7-2.1-1.5-2.9-2.4c-0.8-0.9-1.5-1.9-2.1-3c-0.6-1.1-1-2.3-1.3-3.6s-0.4-2.7-0.4-4.3c0-1.1,0.1-2.2,0.2-3.3
			c0.2-1.1,0.4-2.2,0.7-3.3c0.3-1.1,0.7-2.2,1.2-3.3c0.5-1.1,1-2.1,1.7-3.2c0.5-0.9,1.1-1.8,1.7-2.6c0.6-0.8,1.2-1.6,1.8-2.4
			s1.2-1.5,1.8-2.2c0.2-0.2,0.4-0.5,0.6-0.7l0.3-0.3l0.8-0.9c0.8-0.9,1.6-1.8,2.3-2.6s1.3-1.6,1.6-2.3c-0.5-0.3-0.9-0.6-1.3-0.9
			c-0.4-0.3-0.7-0.6-1-1c-0.3-0.3-0.4-0.6-0.4-1.1c0-0.4,0.1-0.8,0.4-1.1c0.3-0.3,0.6-0.4,0.9-0.4s0.7,0,1,0.2l0,0l0,0l0,0l0,0l0,0
			c-0.4-1.3-1.1-2.5-1.8-3.6c-0.8-1.1-1.7-2-2.8-2.8c-0.2-0.1-0.3-0.3-0.4-0.5s-0.2-0.4-0.2-0.6c0-0.2,0-0.4,0.1-0.6
			c0.1-0.2,0.1-0.3,0.2-0.4l0.1-0.1l0,0c0,0,0.1-0.1,0.2-0.2l0.1-0.1l0.5-0.4c0.4-0.4,1-0.7,1.6-1.2c0.6-0.4,1.4-0.8,2.2-1.1
			c0.7-0.3,1.4-0.5,2.2-0.5L803.6,1404L803.6,1404z M814.5,1421.6c-0.6,0.1-1.4,0.2-2.2,0.3c-0.8,0.1-1.7,0.1-2.8,0.1s-2,0-2.8-0.1
			c-0.8-0.1-1.5-0.2-2.2-0.3c-0.4,0.9-0.9,1.8-1.7,2.7c-0.5,0.6-1,1.2-1.6,1.9l-0.4,0.4l-0.8,0.8c-1.1,1.2-2.2,2.5-3.4,3.9
			s-2.3,2.9-3.3,4.6c-1,1.7-1.8,3.5-2.5,5.4s-1,4-1,6.3c0,2.4,0.4,4.4,1.1,6.1c0.8,1.7,1.9,3.1,3.5,4.2c1.6,1.1,3.6,1.9,6.1,2.4
			s5.4,0.8,8.8,0.8s6.4-0.3,8.8-0.8s4.5-1.3,6.1-2.4c1.6-1.1,2.8-2.5,3.5-4.2c0.7-1.7,1.1-3.7,1.1-6.1c0-2.2-0.3-4.3-1-6.3
			c-0.4-1.2-0.9-2.3-1.4-3.4c-0.3-0.7-0.7-1.4-1.1-2c-1-1.7-2.1-3.2-3.3-4.6c-1-1.2-2-2.3-2.9-3.4l-0.5-0.5l-0.8-0.8
			c-0.4-0.4-0.7-0.8-1-1.2l-0.3-0.4l-0.6-0.7C815.4,1423.3,814.8,1422.4,814.5,1421.6z M815.5,1434c0.2,0,0.4,0.1,0.5,0.2
			c0.1,0.1,0.2,0.3,0.2,0.4c0,0.2-0.1,0.3-0.2,0.4c-0.1,0.1-0.3,0.2-0.5,0.2H813l-0.6,0c-0.2,0-0.4,0-0.5,0l-0.5,0
			c-0.2,0-0.4,0-0.5,0v0.1c0.2,0.1,0.4,0.2,0.7,0.3c0.2,0.2,0.5,0.4,0.7,0.6s0.4,0.5,0.6,0.8c0.2,0.3,0.3,0.7,0.4,1h2.2
			c0.2,0,0.4,0.1,0.5,0.2s0.2,0.3,0.2,0.4c0,0.2-0.1,0.3-0.2,0.4c-0.1,0.1-0.3,0.2-0.5,0.2h-2.2c-0.1,0.9-0.3,1.7-0.7,2.3
			c-0.4,0.6-0.9,1.1-1.5,1.5c-0.6,0.4-1.2,0.6-1.9,0.8c-0.7,0.2-1.3,0.3-1.9,0.3l6.9,6.8c0.2,0.2,0.3,0.4,0.3,0.6
			c0,0.2-0.1,0.4-0.2,0.5c-0.1,0.1-0.3,0.2-0.5,0.2c-0.3,0-0.5-0.1-0.7-0.3l-7.5-7.6c-0.2-0.2-0.3-0.4-0.3-0.6
			c0-0.2,0.1-0.4,0.2-0.5c0.1-0.1,0.3-0.2,0.5-0.2h0.3c0.6,0,1.3-0.1,1.9-0.2c0.6-0.1,1.2-0.3,1.7-0.6c0.5-0.3,0.9-0.7,1.3-1.1
			c0.3-0.5,0.5-1.1,0.6-1.8h-5.9c-0.2,0-0.4-0.1-0.5-0.2c-0.1-0.1-0.2-0.3-0.2-0.4c0-0.2,0.1-0.3,0.2-0.4s0.3-0.2,0.5-0.2h5.8
			c-0.2-0.9-0.7-1.6-1.5-2.1c-0.8-0.5-1.9-0.7-3.2-0.7h-1.2c-0.2,0-0.4-0.1-0.5-0.2c-0.1-0.1-0.2-0.3-0.2-0.4c0-0.2,0.1-0.3,0.2-0.4
			c0.1-0.1,0.3-0.2,0.5-0.2H815.5z M817,1407c-0.3,0-0.5,0-0.6,0.1c-0.1,0.1-0.2,0.3-0.4,0.6c-0.2,0.4-0.6,0.9-1.1,1.5
			c-0.5,0.6-1.3,0.9-2.5,0.9c-0.9,0-1.8-0.2-2.7-0.5s-1.7-0.7-2.5-1.1c-0.7-0.4-1.3-0.7-2-0.9c-0.5-0.2-1.1-0.4-1.6-0.4l-0.2,0
			l-0.3,0c-0.6,0-1.1,0.2-1.7,0.5c-0.7,0.3-1.2,0.7-1.7,1c1,0.9,1.8,1.9,2.4,2.8c0.6,1,1.1,1.9,1.5,2.8c0.4,0.9,0.6,1.7,0.8,2.5
			s0.3,1.4,0.4,1.9c0.5,0.2,1.2,0.3,1.9,0.4c0.8,0.1,1.6,0.1,2.7,0.1s1.9,0,2.7-0.1c0.7-0.1,1.4-0.2,1.9-0.4
			c0.1-0.5,0.2-1.2,0.4-1.9c0.2-0.8,0.5-1.6,0.9-2.6s0.9-1.9,1.6-2.9s1.5-2,2.5-2.9c-0.3-0.3-0.6-0.6-1-0.8S817.5,1407,817,1407z"/>
	</g>
</g>
</svg>
