<?xml version="1.0" encoding="utf-8"?>
<!-- Generator: Adobe Illustrator 25.2.3, SVG Export Plug-In . SVG Version: 6.00 Build 0)  -->
<svg version="1.1" id="Layer_1" xmlns="http://www.w3.org/2000/svg" xmlns:xlink="http://www.w3.org/1999/xlink" x="0px" y="0px"
	 viewBox="0 0 57 48" style="enable-background:new 0 0 57 48;" xml:space="preserve">
<style type="text/css">
	.st0{fill-rule:evenodd;clip-rule:evenodd;fill:url(#Combined-Shape_1_);}
</style>
<desc>Created with Sketch.</desc>
<g id="Page-1">
	<g id="VSAT-20-Result-Page-Web" transform="translate(-332.000000, -1411.000000)">
		
			<linearGradient id="Combined-Shape_1_" gradientUnits="userSpaceOnUse" x1="-582.526" y1="1965.1183" x2="-581.6334" y2="1964.4614" gradientTransform="matrix(57 0 0 -48 33544 95744)">
			<stop  offset="0" style="stop-color:#008AFF"/>
			<stop  offset="1" style="stop-color:#171347"/>
		</linearGradient>
		<path id="Combined-Shape" class="st0" d="M384.5,1411c1.2,0,2.3,0.4,3.2,1.3c0.8,0.8,1.3,1.8,1.3,2.9l0,0.2v30
			c0,1.2-0.4,2.3-1.3,3.2c-0.8,0.8-1.8,1.3-2.9,1.3l-0.2,0H362v6h10.5c0.4,0,0.8,0.1,1.1,0.4s0.4,0.6,0.4,1.1c0,0.4-0.1,0.8-0.4,1.1
			c-0.3,0.3-0.6,0.4-0.9,0.4l-0.2,0h-24c-0.4,0-0.8-0.1-1.1-0.4s-0.4-0.7-0.4-1.1c0-0.4,0.1-0.8,0.4-1.1c0.3-0.3,0.6-0.4,0.9-0.4
			l0.2,0H359v-6h-22.5c-1.2,0-2.3-0.4-3.2-1.3c-0.8-0.8-1.3-1.8-1.3-2.9l0-0.3v-30c0-1.2,0.4-2.3,1.3-3.2c0.8-0.8,1.8-1.3,2.9-1.3
			l0.2,0H384.5z M384.5,1414h-48c-0.4,0-0.8,0.1-1.1,0.4c-0.3,0.3-0.4,0.6-0.4,0.9l0,0.2v30c0,0.4,0.1,0.8,0.4,1.1
			c0.3,0.3,0.6,0.4,0.9,0.4l0.2,0h48c0.4,0,0.8-0.1,1.1-0.4c0.3-0.3,0.4-0.6,0.4-0.9l0-0.2v-30c0-0.4-0.1-0.8-0.4-1.1
			C385.3,1414.2,384.9,1414,384.5,1414z M364.9,1431.9c0.5,0,1,0,1.5,0.1c0.5,0,0.9,0.1,1.3,0.2c0.4,0.1,0.8,0.2,1.2,0.3
			c0.4,0.1,0.8,0.2,1.1,0.4c0.6,0.2,1.1,0.5,1.6,0.9c0.5,0.3,0.9,0.7,1.2,1.1c0.6,0.7,1,1.4,1.1,2l0.2,1c0,0.5-0.2,1-0.6,1.4
			c-0.4,0.4-0.8,0.6-1.4,0.6h-14.3c-0.5,0-1-0.2-1.4-0.6c-0.4-0.4-0.6-0.8-0.6-1.4l0-0.2c0-0.2,0.1-0.4,0.1-0.8c0.1-0.6,0.5-1.3,1-2
			c0.3-0.4,0.7-0.8,1.2-1.1c0.5-0.3,1-0.6,1.6-0.9c0.3-0.1,0.7-0.3,1.1-0.4c0.4-0.1,0.8-0.2,1.2-0.3c0.4-0.1,0.9-0.1,1.3-0.2
			S364.4,1431.9,364.9,1431.9z M354.8,1433.2c0.1,0,0.2,0,0.3,0c0.2,0,0.3,0.1,0.4,0.2s0.2,0.3,0.2,0.5c0,0.2-0.1,0.3-0.2,0.4
			s-0.3,0.2-0.5,0.2l-0.1,0l-0.2,0c-0.1,0-0.2,0-0.3,0c-1.3,0-2.3,0.2-3,0.5c-0.7,0.3-1.2,0.7-1.5,1.1c-0.3,0.4-0.5,0.8-0.6,1.1
			l-0.1,0.6c0,0.2,0.1,0.3,0.2,0.5c0.1,0.1,0.3,0.2,0.5,0.2h3.9c0.2,0,0.3,0.1,0.5,0.2c0.1,0.1,0.2,0.3,0.2,0.5
			c0,0.2-0.1,0.3-0.2,0.5c-0.1,0.1-0.3,0.2-0.5,0.2H350c-0.5,0-1-0.2-1.4-0.6c-0.4-0.4-0.6-0.8-0.6-1.4l0.1-0.4c0-0.1,0-0.2,0.1-0.4
			c0.1-0.5,0.3-1,0.7-1.6c0.2-0.3,0.5-0.6,0.9-0.9c0.3-0.3,0.7-0.5,1.1-0.7c0.5-0.2,1-0.4,1.7-0.5c0.6-0.1,1.3-0.2,2-0.2H354.8z
			 M364.9,1433.2c-0.8,0-1.6,0-2.2,0.1c-0.7,0.1-1.3,0.2-1.9,0.4c-0.6,0.2-1.1,0.4-1.5,0.7c-0.5,0.3-0.8,0.6-1.1,1
			c-0.4,0.5-0.7,0.9-0.8,1.3l0,0.2l-0.1,0.7l0,0.1c0,0.1,0.1,0.3,0.2,0.4c0.1,0.1,0.2,0.2,0.4,0.2l0.1,0H372l0.1,0
			c0.1,0,0.3-0.1,0.4-0.2c0.1-0.1,0.2-0.2,0.2-0.4l0-0.1l-0.1-0.7l0-0.2c-0.1-0.4-0.4-0.9-0.8-1.3c-0.3-0.4-0.7-0.7-1.2-1
			c-0.4-0.3-1-0.5-1.5-0.7c-0.6-0.2-1.2-0.3-1.9-0.4C366.4,1433.3,365.7,1433.2,364.9,1433.2z M354.5,1424.1c0.5,0,1,0.1,1.5,0.3
			c0.5,0.2,0.9,0.5,1.2,0.8s0.6,0.8,0.8,1.2c0.2,0.5,0.3,1,0.3,1.5s-0.1,1-0.3,1.5c-0.2,0.5-0.5,0.9-0.8,1.2s-0.8,0.6-1.2,0.8
			c-0.5,0.2-1,0.3-1.5,0.3c-0.5,0-1-0.1-1.5-0.3c-0.5-0.2-0.9-0.5-1.2-0.8s-0.6-0.8-0.8-1.2c-0.2-0.5-0.3-1-0.3-1.5s0.1-1,0.3-1.5
			c0.2-0.5,0.5-0.9,0.8-1.2s0.8-0.6,1.2-0.8C353.4,1424.2,354,1424.1,354.5,1424.1z M364.9,1420.2c0.7,0,1.4,0.1,2,0.4
			s1.2,0.6,1.7,1.1c0.5,0.5,0.8,1,1.1,1.7c0.3,0.6,0.4,1.3,0.4,2c0,0.7-0.1,1.4-0.4,2c-0.3,0.6-0.6,1.2-1.1,1.6
			c-0.5,0.5-1,0.8-1.7,1.1c-0.6,0.3-1.3,0.4-2,0.4c-0.7,0-1.4-0.1-2-0.4c-0.6-0.3-1.2-0.6-1.7-1.1c-0.5-0.5-0.8-1-1.1-1.6
			c-0.3-0.6-0.4-1.3-0.4-2c0-0.7,0.1-1.4,0.4-2s0.6-1.2,1.1-1.7c0.5-0.5,1-0.8,1.7-1.1S364.2,1420.2,364.9,1420.2z M354.5,1425.4
			c-0.4,0-0.7,0.1-1,0.2s-0.6,0.3-0.8,0.6c-0.2,0.2-0.4,0.5-0.6,0.8c-0.1,0.3-0.2,0.7-0.2,1s0.1,0.7,0.2,1c0.1,0.3,0.3,0.6,0.6,0.8
			c0.2,0.2,0.5,0.4,0.8,0.6s0.7,0.2,1,0.2c0.4,0,0.7-0.1,1-0.2s0.6-0.3,0.8-0.6c0.2-0.2,0.4-0.5,0.6-0.8c0.1-0.3,0.2-0.7,0.2-1
			s-0.1-0.7-0.2-1c-0.1-0.3-0.3-0.6-0.6-0.8c-0.2-0.2-0.5-0.4-0.8-0.6S354.9,1425.4,354.5,1425.4z M364.9,1421.5
			c-0.5,0-1,0.1-1.5,0.3c-0.5,0.2-0.9,0.5-1.2,0.8s-0.6,0.8-0.8,1.2c-0.2,0.5-0.3,1-0.3,1.5c0,0.5,0.1,1,0.3,1.5
			c0.2,0.5,0.5,0.9,0.8,1.2c0.4,0.4,0.8,0.6,1.2,0.8c0.5,0.2,1,0.3,1.5,0.3c0.5,0,1-0.1,1.5-0.3c0.5-0.2,0.9-0.5,1.2-0.8
			c0.4-0.4,0.6-0.8,0.8-1.2c0.2-0.5,0.3-1,0.3-1.5c0-0.5-0.1-1-0.3-1.5c-0.2-0.5-0.5-0.9-0.8-1.2s-0.8-0.6-1.2-0.8
			C365.9,1421.6,365.4,1421.5,364.9,1421.5z"/>
	</g>
</g>
<image style="display:none;overflow:visible;" width="1366" height="768" xlink:href="61A862EE.jpg"  transform="matrix(0.3704 0 0 0.3704 -565.0124 -266.2059)">
</image>
</svg>
